<svg xmlns="http://www.w3.org/2000/svg" viewBox="0 0 180 180" fill="none">
  <defs>
    <linearGradient id="stroke" x1="30" y1="30" x2="150" y2="150" gradientUnits="userSpaceOnUse">
      <stop stop-color="#14b8a6"/>
      <stop offset="1" stop-color="#0f766e"/>
    </linearGradient>
  </defs>
  <rect width="180" height="180" rx="40" fill="#0f172a"/>
  <g transform="translate(24 24) scale(2.75)">
    <rect x="4" y="6" width="40" height="36" rx="6" stroke="url(#stroke)" stroke-width="1.5" fill="rgba(15,23,42,0.85)"/>
    <line x1="4" y1="14" x2="44" y2="14" stroke="url(#stroke)" stroke-width="1" opacity="0.35"/>
    <circle cx="10" cy="10" r="1.5" fill="#ef4444" opacity="0.85"/>
    <circle cx="15" cy="10" r="1.5" fill="#f59e0b" opacity="0.85"/>
    <circle cx="20" cy="10" r="1.5" fill="#22c55e" opacity="0.85"/>
    <path d="M11 20 V38 M11 20 C11 17 13 16 15 16 M11 38 C11 41 13 42 15 42" stroke="url(#stroke)" stroke-width="1.5" stroke-linecap="round" opacity="0.45"/>
    <path d="M37 20 V38 M37 20 C37 17 35 16 33 16 M37 38 C37 41 35 42 33 42" stroke="url(#stroke)" stroke-width="1.5" stroke-linecap="round" opacity="0.45"/>
    <path d="M17 18 V36 M17 18 H22 C25.5 18 27 20.5 27 23 C27 25.5 25.5 27 22 27 H17 M22 27 L27 36" stroke="url(#stroke)" stroke-width="2.4" stroke-linecap="round" stroke-linejoin="round" opacity="0.92"/>
    <path d="M29 36 V18 L32 26 L35 18 V36" stroke="url(#stroke)" stroke-width="2.4" stroke-linecap="round" stroke-linejoin="round" opacity="0.92"/>
    <rect x="37" y="32" width="2" height="8" rx="0.5" fill="#14b8a6"/>
  </g>
</svg>
