<svg xmlns="http://www.w3.org/2000/svg" viewBox="0 0 512 512" fill="none" role="img" aria-label="Rihan Mohammed brand mark">
  <defs>
    <linearGradient id="stroke" x1="96" y1="96" x2="416" y2="416" gradientUnits="userSpaceOnUse">
      <stop stop-color="#0d9488"/>
      <stop offset="1" stop-color="#115e59"/>
    </linearGradient>
  </defs>
  <rect width="512" height="512" rx="112" fill="#f8fafc"/>
  <g transform="translate(64 64) scale(8)">
    <rect x="4" y="6" width="40" height="36" rx="6" stroke="url(#stroke)" stroke-width="1.65" fill="rgba(248,250,252,0.98)"/>
    <line x1="4" y1="14" x2="44" y2="14" stroke="url(#stroke)" stroke-width="1" opacity="0.42"/>
    <circle cx="10" cy="10" r="1.5" fill="#ef4444" opacity="0.92"/>
    <circle cx="15" cy="10" r="1.5" fill="#f59e0b" opacity="0.92"/>
    <circle cx="20" cy="10" r="1.5" fill="#22c55e" opacity="0.92"/>
    <path d="M11 20 V38 M11 20 C11 17 13 16 15 16 M11 38 C11 41 13 42 15 42" stroke="url(#stroke)" stroke-width="1.5" stroke-linecap="round" opacity="0.52"/>
    <path d="M37 20 V38 M37 20 C37 17 35 16 33 16 M37 38 C37 41 35 42 33 42" stroke="url(#stroke)" stroke-width="1.5" stroke-linecap="round" opacity="0.52"/>
    <path d="M17 18 V36 M17 18 H22 C25.5 18 27 20.5 27 23 C27 25.5 25.5 27 22 27 H17 M22 27 L27 36" stroke="url(#stroke)" stroke-width="2.55" stroke-linecap="round" stroke-linejoin="round" opacity="1"/>
    <path d="M29 36 V18 L32 26 L35 18 V36" stroke="url(#stroke)" stroke-width="2.55" stroke-linecap="round" stroke-linejoin="round" opacity="1"/>
    <rect x="37" y="32" width="2" height="8" rx="0.5" fill="#0f766e"/>
  </g>
</svg>
