<svg xmlns="http://www.w3.org/2000/svg" width="800" height="500" viewBox="0 0 800 500" role="img" aria-label="GitHub and open source">
  <defs>
    <linearGradient id="g" x1="0%" y1="0%" x2="100%" y2="100%">
      <stop offset="0%" stop-color="#22d3ee"/>
      <stop offset="100%" stop-color="#0f766e"/>
    </linearGradient>
  </defs>
  <rect width="800" height="500" fill="url(#g)"/>
  <path d="M400 130 C320 130 260 190 260 270 C260 330 295 380 345 400 C352 402 355 397 355 393 C355 389 355 375 355 360 C320 368 312 350 308 340 C305 333 290 318 280 312 C272 307 282 307 292 312 C300 317 306 330 312 338 C320 350 335 346 355 336 C358 322 365 312 380 305 C340 300 310 285 310 240 C310 225 315 212 325 202 C323 197 315 175 330 150 C345 145 385 170 385 170 C385 170 425 145 440 150 C455 175 447 197 445 202 C455 212 460 225 460 240 C460 285 430 300 390 305 C408 315 420 335 420 360 L420 400 C470 380 505 330 505 270 C505 190 445 130 400 130 Z" fill="#ecfeff" opacity="0.9"/>
</svg>
